<svg xmlns="http://www.w3.org/2000/svg" width="90" height="90" viewBox="0 0 90 90" fill="none">
<rect width="90" height="90"/>
<path d="M7.5 37.5C10.425 23.19 21.2625 11.7375 35.2725 7.8375C36.45 7.51125 37.035 7.34625 37.3538 7.695C37.6725 8.0475 37.4363 8.625 36.9713 9.7875L33.75 16.875M52.5 7.5C66.81 10.425 78.2625 21.2625 82.1625 35.2725C82.4887 36.45 82.6537 37.035 82.305 37.3538C81.9525 37.6725 81.375 37.4363 80.2125 36.9713L73.125 33.75M82.5 52.5C79.575 66.81 68.7375 78.2625 54.7275 82.1625C53.55 82.4887 52.965 82.6537 52.6462 82.305C52.3275 81.9525 52.5637 81.375 53.0287 80.2125L56.25 73.125M37.5 82.5C23.19 79.575 11.7375 68.7375 7.8375 54.7275C7.51125 53.55 7.34625 52.965 7.695 52.6462C8.0475 52.3275 8.625 52.5637 9.7875 53.0287L16.875 56.25M32.2987 43.7437L45.42 26.8987C46.4475 25.5825 48.3713 26.4037 48.3713 28.1587V41.1937C48.3713 42.2437 49.1212 43.0988 50.055 43.0988H56.4375C57.885 43.0988 58.6575 45.0263 57.7013 46.2563L44.58 63.1012C43.5525 64.4175 41.6287 63.5962 41.6287 61.8412V48.8063C41.6287 47.7563 40.8788 46.9012 39.945 46.9012H33.5625C32.115 46.9012 31.3387 44.9737 32.2987 43.7437Z" stroke="white" stroke-width="3" stroke-linecap="round" stroke-linejoin="round"/>
</svg>