<svg width="90" height="90" viewBox="0 0 90 90" fill="none" xmlns="http://www.w3.org/2000/svg">
<path d="M63.735 33.7987H63.765M63.765 26.2837V16.8938M28.1325 82.5H17.6925C16.4813 82.5 15.2625 82.3275 14.1488 81.8512C10.5263 80.295 8.68501 78.2363 7.83001 76.95C7.59796 76.5937 7.48395 76.1734 7.50415 75.7487C7.52434 75.324 7.67771 74.9164 7.94251 74.5837C12.1425 69.0037 21.8775 65.6363 28.1325 65.6363M28.1513 82.5H38.5875C39.8025 82.5 41.0175 82.3275 42.1313 81.8512C45.7575 80.295 47.595 78.2363 48.4538 76.95C48.6858 76.5937 48.7998 76.1734 48.7796 75.7487C48.7594 75.324 48.6061 74.9164 48.3413 74.5837C44.1413 69.0037 34.4063 65.6363 28.1513 65.6363M82.5 25.47C82.5 35.3925 74.1 43.44 63.735 43.44C62.515 43.44 61.305 43.3275 60.105 43.1025C59.2425 42.9413 58.815 42.8625 58.5113 42.9075C58.2113 42.9525 57.7838 43.1775 56.9363 43.635C54.5087 44.9292 51.7148 45.364 49.0088 44.8688C50.0363 43.6013 50.7338 42.0825 51.045 40.455C51.2325 39.4613 50.7675 38.4938 50.07 37.785C46.8132 34.5127 44.9803 30.0868 44.97 25.47C44.97 15.5475 53.37 7.5 63.735 7.5C74.1 7.5 82.5 15.5475 82.5 25.47ZM38.5688 46.0837C38.5648 48.8434 37.4652 51.4885 35.5118 53.4377C33.5583 55.3869 30.9109 56.4807 28.1513 56.4787C26.7842 56.4807 25.4301 56.2134 24.1664 55.6921C22.9026 55.1707 21.7539 54.4056 20.7859 53.4403C19.8178 52.4751 19.0494 51.3286 18.5244 50.0663C17.9994 48.8041 17.7282 47.4508 17.7263 46.0837C17.7277 44.7164 17.9986 43.3627 18.5233 42.1C19.0481 40.8373 19.8165 39.6904 20.7846 38.7247C21.7527 37.7591 22.9015 36.9936 24.1655 36.472C25.4295 35.9505 26.7839 35.683 28.1513 35.685C30.9115 35.683 33.5596 36.7774 35.5131 38.7274C37.4667 40.6774 38.5658 43.3235 38.5688 46.0837Z" stroke="white" stroke-width="3" stroke-linecap="round" stroke-linejoin="round"/>
</svg>
