<svg width="71" height="73" viewBox="0 0 71 73" fill="none" xmlns="http://www.w3.org/2000/svg">
<path d="M62 31.5294V29.7924C62 16.6917 62 10.1397 57.605 6.07158C53.21 2.00347 46.1412 2 32 2C17.8588 2 10.7862 2 6.395 6.07158C2.00375 10.1432 2 16.6917 2 29.7924V50.6367C2 57.1123 2 60.3501 3.14 62.9C3.89382 64.5862 4.9988 66.1183 6.39183 67.4088C7.78485 68.6993 9.43864 69.723 11.2587 70.4213C14.015 71.4809 17.51 71.4809 24.5 71.4809M17 19.3702H47M17 33.2664H32" stroke="white" stroke-width="3" stroke-linecap="round" stroke-linejoin="round"/>
<path d="M48.0612 61.0726C47.8362 57.9876 47.4425 54.6873 45.8075 50.9561C44.4088 47.7739 44.7988 40.2874 52.625 40.2874C60.4512 40.2874 60.7475 47.7739 59.3525 50.9527C57.7175 54.6873 57.41 57.9876 57.1925 61.0726M69.5 71.4808H35.75V67.1522C35.75 65.6027 36.7475 64.2374 38.1987 63.8136L46.655 61.3262C47.26 61.1478 47.8775 61.0587 48.5075 61.0587H56.7425C57.3725 61.0587 57.99 61.1478 58.595 61.3262L67.0513 63.8136C68.5025 64.2374 69.5 65.6027 69.5 67.1522V71.4808Z" stroke="white" stroke-width="3" stroke-linecap="round" stroke-linejoin="round"/>
</svg>
