<svg width="90" height="90" viewBox="0 0 90 90" fill="none" xmlns="http://www.w3.org/2000/svg">
<path d="M41.0437 82.5C24.5887 82.5 11.25 69.0675 11.25 52.5C11.25 44.685 14.8425 36.87 19.5375 30C20.4975 35.625 24.6562 46.5 33.5962 45C23.7562 24.375 41.0437 7.5 41.0437 7.5C41.0437 7.5 42.9075 20.625 59.6662 33.75C61.2162 34.965 62.5775 36.215 63.75 37.5M58.26 60.7575C63.06 60.2587 68.1937 60.1425 72.9975 60.72M58.2562 60.7575C58.2562 58.1512 57.855 54.5475 59.3812 52.2C62.7675 47.025 69.7537 47.925 72.2325 52.875C73.3612 55.3538 72.945 58.2675 73.0012 60.7238C74.7187 60.93 77.1 61.8038 78.0975 64.8113C78.9975 68.4113 78.8625 74.2688 78.3225 77.4188C77.1937 81.4725 74.94 82.4625 71.0962 82.4625C68.6175 82.4625 60.0487 82.5075 58.02 82.3275C55.9012 82.14 53.5237 80.5687 52.8937 77.1937C52.17 71.79 52.6237 66.8362 53.1637 64.8075C53.7 63.1575 55.0725 61.0875 58.2562 60.7575Z" stroke="white" stroke-width="3" stroke-linecap="round" stroke-linejoin="round"/>
</svg>
