<svg width="24" height="24" viewBox="0 0 24 24" fill="none" xmlns="http://www.w3.org/2000/svg">
<path fill-rule="evenodd" clip-rule="evenodd" d="M16.2414 8.80948L15.3956 6.34499C15.2642 5.96217 14.9042 5.70508 14.4994 5.70508H6.72187C6.26638 5.70508 5.87535 6.0292 5.79085 6.47679L5.38544 8.62437C5.33037 8.91608 5.55409 9.18599 5.85095 9.18599H15.9726C16.1676 9.18599 16.3047 8.99398 16.2414 8.80948ZM12.7443 6.56592C13.1585 6.56592 13.4943 6.9017 13.4943 7.31592C13.4943 7.73013 13.1585 8.06592 12.7443 8.06592H11.4943C11.0801 8.06592 10.7443 7.73013 10.7443 7.31592C10.7443 6.9017 11.0801 6.56592 11.4943 6.56592H12.7443ZM8.99432 6.56592C9.40854 6.56592 9.74432 6.9017 9.74432 7.31592C9.74432 7.73013 9.40854 8.06592 8.99432 8.06592H7.74432C7.33011 8.06592 6.99432 7.73013 6.99432 7.31592C6.99432 6.9017 7.33011 6.56592 7.74432 6.56592H8.99432Z" fill="#687176"></path>
<path fill-rule="evenodd" clip-rule="evenodd" d="M19.585 11.5912L18.9491 10.5956C18.775 10.3231 18.4739 10.1582 18.1506 10.1582H4.42275C4.01763 10.1582 3.65732 10.4158 3.52625 10.7991L2.50335 13.7907C2.39824 14.0981 2.62671 14.4177 2.9516 14.4177H12.8828C13.1415 14.4177 13.3889 14.3119 13.5677 14.1249L15.292 12.3212C15.4707 12.1342 15.7182 12.0284 15.9768 12.0284H19.3454C19.5699 12.0284 19.7058 11.7804 19.585 11.5912ZM10.7444 11.3032C11.1586 11.3032 11.4944 11.639 11.4944 12.0532C11.4944 12.4674 11.1586 12.8032 10.7444 12.8032H9.49438C9.08017 12.8032 8.74438 12.4674 8.74438 12.0532C8.74438 11.639 9.08017 11.3032 9.49438 11.3032H10.7444ZM6.99438 11.3032C7.4086 11.3032 7.74438 11.639 7.74438 12.0532C7.74438 12.4674 7.4086 12.8032 6.99438 12.8032H5.74438C5.33017 12.8032 4.99438 12.4674 4.99438 12.0532C4.99438 11.639 5.33017 11.3032 5.74438 11.3032H6.99438Z" fill="#687176"></path>
<path fill-rule="evenodd" clip-rule="evenodd" d="M2.58133 20.1629L1.09294 17.0321C0.794046 16.4034 1.25249 15.6778 1.94862 15.6778H13.4447C13.696 15.6778 13.937 15.578 14.1147 15.4003L15.949 13.5661C16.1266 13.3884 16.3676 13.2886 16.6189 13.2886H22.5407C23.154 13.2886 23.5944 13.8598 23.3926 14.439C22.6668 16.5217 20.7625 20.7035 17.1739 20.7035H3.43341C3.06775 20.7035 2.73833 20.4931 2.58133 20.1629ZM5.71287 18.9614L4.77979 18.9614C4.36558 18.9614 4.02979 18.6256 4.02979 18.2114C4.02979 17.7972 4.36558 17.4614 4.77979 17.4614L5.71287 17.4614C6.12708 17.4614 6.46287 17.7972 6.46287 18.2114C6.46287 18.6256 6.12708 18.9614 5.71287 18.9614ZM9.44517 18.9614H7.57902C7.1648 18.9614 6.82902 18.6256 6.82902 18.2114C6.82902 17.7972 7.1648 17.4614 7.57902 17.4614H9.44517C9.85938 17.4614 10.1952 17.7972 10.1952 18.2114C10.1952 18.6256 9.85938 18.9614 9.44517 18.9614ZM12.2444 18.9614H11.3113C10.8971 18.9614 10.5613 18.6256 10.5613 18.2114C10.5613 17.7972 10.8971 17.4614 11.3113 17.4614H12.2444C12.6586 17.4614 12.9944 17.7972 12.9944 18.2114C12.9944 18.6256 12.6586 18.9614 12.2444 18.9614Z" fill="#0194F3"></path>
<path d="M12.0951 4.47373C12.0951 4.2121 11.883 4 11.6213 4H10.6739C10.4122 4 10.2001 4.2121 10.2001 4.47373V5.89493H12.0951V4.47373Z" fill="#687176"></path>
<path d="M9.25259 4.47373C9.25259 4.2121 9.0405 4 8.77886 4H7.8314C7.56976 4 7.35767 4.2121 7.35767 4.47373V5.89493H9.25259V4.47373Z" fill="#687176"></path>
</svg>