<svg width="24" height="24" viewBox="0 0 24 24" fill="none" xmlns="http://www.w3.org/2000/svg">
<path fill-rule="evenodd" clip-rule="evenodd" d="M13 19.5H5C3.72684 19.5 2.61245 18.8202 2 17.8038V18.5C2 20.433 3.567 22 5.5 22H18.5C20.433 22 22 20.433 22 18.5V17.8038C21.3876 18.8202 20.2732 19.5 19 19.5H15V22H13V19.5Z" fill="#687176"></path>
<path fill-rule="evenodd" clip-rule="evenodd" d="M5.5 2C3.567 2 2 3.567 2 5.5V10H9.3442C9.12385 9.60826 9 9.15813 9 8.68466V8.54508C9 7.13947 10.1395 6 11.5451 6C12.0755 6 12.5809 6.16489 13 6.45685V2H5.5ZM18.6558 10C18.8762 9.60826 19 9.15813 19 8.68466V8.54508C19 7.13947 17.8605 6 16.4549 6C15.9245 6 15.4191 6.16489 15 6.45685V2H18.5C20.433 2 22 3.567 22 5.5V10H18.6558ZM15 13.135L16.3598 14.2682C16.7841 14.6218 17.4147 14.5645 17.7682 14.1402C18.1218 13.7159 18.0645 13.0853 17.6402 12.7318L16.762 12H22V15C22 16.6569 20.6569 18 19 18H15V13.135ZM11.2379 12L10.3598 12.7318C9.93554 13.0853 9.87821 13.7159 10.2318 14.1402C10.5853 14.5645 11.2159 14.6218 11.6402 14.2682L13 13.135V18H5C3.34315 18 2 16.6569 2 15V12H11.2379ZM11 8.54508C11 8.24404 11.244 8 11.5451 8C11.7515 8 11.9403 8.11665 12.0326 8.30132L12.7047 9.64539L11.5186 9.34887C11.2138 9.27268 11 8.99883 11 8.68466V8.54508ZM16.4814 9.34888L15.2953 9.64539L15.9674 8.30132C16.0597 8.11665 16.2485 8 16.4549 8C16.756 8 17 8.24404 17 8.54508V8.68466C17 8.99883 16.7862 9.27268 16.4814 9.34888Z" fill="#687176"></path>
</svg>