<svg width="24" height="24" viewBox="0 0 24 24" fill="none" xmlns="http://www.w3.org/2000/svg">
<path d="M19.1299 9.93018C17.3399 9.93018 15.8899 11.3802 15.8899 13.1702C15.8899 13.4502 16.1099 13.6702 16.3899 13.6702C16.6699 13.6702 16.8899 13.4502 16.8899 13.1702C16.8899 11.9402 17.8899 10.9302 19.1299 10.9302C19.4099 10.9302 19.6299 10.7102 19.6299 10.4302C19.6299 10.1502 19.4099 9.93018 19.1299 9.93018Z" fill="#687176"></path>
<path d="M4.8899 9.93018C3.0999 9.93018 1.6499 11.3802 1.6499 13.1702C1.6499 13.4502 1.8699 13.6702 2.1499 13.6702C2.4299 13.6702 2.6499 13.4502 2.6499 13.1702C2.6499 11.9402 3.6499 10.9302 4.8899 10.9302C5.1699 10.9302 5.3899 10.7102 5.3899 10.4302C5.3899 10.1502 5.1699 9.93018 4.8899 9.93018Z" fill="#687176"></path>
<path d="M22.21 9.41L18.46 5.72C17.85 5.25 17.11 5 16.34 5C15.19 5 14.14 5.55 13.49 6.47C12.56 6.03 11.49 6.03 10.56 6.47C9.46 4.93 7.16 4.49 5.52 5.76C5.52 5.76 1.83 9.39 1.81 9.41C0.72 10.31 0 11.65 0 13.17C0 15.86 2.19 18.05 4.88 18.05C6.97 18.05 8.74 16.73 9.43 14.88L9.72 15.1C10.37 15.59 11.18 15.86 11.99 15.86C12.8 15.86 13.61 15.59 14.26 15.1L14.56 14.88C15.26 16.73 17.03 18.05 19.11 18.05C21.8 18.05 23.99 15.86 23.99 13.17C23.99 11.65 23.28 10.31 22.19 9.41H22.21ZM4.89 17.05C2.75 17.05 1.01 15.31 1.01 13.17C1.01 11.03 2.75 9.29 4.89 9.29C7.03 9.29 8.77 11.03 8.77 13.17C8.77 15.31 7.03 17.05 4.89 17.05ZM12.01 11.53C12.56 11.53 13.01 11.98 13.01 12.53C13.01 13.08 12.56 13.53 12.01 13.53C11.46 13.53 11.01 13.08 11.01 12.53C11.01 11.98 11.46 11.53 12.01 11.53ZM14.28 14.27C13.63 14.76 12.82 15.03 12.01 15.03C11.2 15.03 10.39 14.76 9.74 14.27L9.53 14.12C9.64 13.77 9.71 13.4 9.74 13.03L10.34 13.48C11.3 14.2 12.72 14.2 13.68 13.48L14.28 13.03C14.31 13.41 14.38 13.77 14.49 14.12L14.28 14.28V14.27ZM19.13 17.06C16.99 17.06 15.25 15.32 15.25 13.18C15.25 11.04 16.99 9.3 19.13 9.3C21.27 9.3 23.01 11.04 23.01 13.18C23.01 15.32 21.27 17.06 19.13 17.06Z" fill="#687176"></path>
</svg>