<svg width="90" height="90" viewBox="0 0 90 90" fill="none" xmlns="http://www.w3.org/2000/svg">
<path d="M52.5 63.75H37.5M82.5 48.75C73.2862 44.1488 59.8988 41.25 45 41.25C30.1012 41.25 16.7138 44.1488 7.5 48.75M26.25 56.25C23.2663 56.25 20.4048 57.4353 18.295 59.545C16.1853 61.6548 15 64.5163 15 67.5C15 70.4837 16.1853 73.3452 18.295 75.455C20.4048 77.5647 23.2663 78.75 26.25 78.75C29.2337 78.75 32.0952 77.5647 34.205 75.455C36.3147 73.3452 37.5 70.4837 37.5 67.5C37.5 64.5163 36.3147 61.6548 34.205 59.545C32.0952 57.4353 29.2337 56.25 26.25 56.25ZM63.75 56.25C60.7663 56.25 57.9048 57.4353 55.795 59.545C53.6853 61.6548 52.5 64.5163 52.5 67.5C52.5 70.4837 53.6853 73.3452 55.795 75.455C57.9048 77.5647 60.7663 78.75 63.75 78.75C66.7337 78.75 69.5952 77.5647 71.705 75.455C73.8147 73.3452 75 70.4837 75 67.5C75 64.5163 73.8147 61.6548 71.705 59.545C69.5952 57.4353 66.7337 56.25 63.75 56.25Z" stroke="white" stroke-width="3" stroke-linecap="round" stroke-linejoin="round"/>
<path d="M71.25 43.125L67.2825 17.67C66.4762 12.48 60.8362 9.66752 56.2837 12.1838L53.9775 13.4588C51.2301 14.9809 48.1408 15.7794 45 15.7794C41.8592 15.7794 38.7699 14.9809 36.0225 13.4588L33.7163 12.1838C29.1638 9.67127 23.5238 12.4838 22.7175 17.67L18.75 43.125" stroke="white" stroke-width="3" stroke-linecap="round" stroke-linejoin="round"/>
</svg>
