<svg width="90" height="90" viewBox="0 0 90 90" fill="none" xmlns="http://www.w3.org/2000/svg">
<path d="M45 18.75C50.5913 21.315 60 16.875 60 7.5C53.8425 9.83625 50.6625 9.8025 45 7.5V18.75ZM45 18.75V30M27.315 36.4125L25.725 33.3263C25.095 32.0963 24.7763 31.4813 24.3 31.0388C23.9116 30.67 23.4487 30.3887 22.9425 30.2138C22.3238 30 21.6225 30 20.22 30C18.1575 30 17.13 30 16.3238 30.3937C15.668 30.7125 15.1193 31.2155 14.745 31.8413C14.2875 32.6025 14.2125 33.6112 14.0663 35.6325L11.535 70.4475C11.1225 76.095 10.92 78.915 12.6188 80.7075C14.3175 82.5 17.1938 82.5 22.95 82.5H67.0425C72.8025 82.5 75.6788 82.5 77.3775 80.7075C79.0763 78.915 78.87 76.095 78.4613 70.4475L75.93 35.6325C75.78 33.6112 75.7088 32.6025 75.255 31.8413C74.8797 31.215 74.3297 30.7119 73.6725 30.3937C72.87 30 71.8388 30 69.7763 30C68.3775 30 67.6763 30 67.0575 30.2138C66.55 30.3882 66.0857 30.6695 65.6963 31.0388C65.2238 31.4813 64.9088 32.0963 64.2713 33.3263L62.685 36.4125C62.235 37.2863 62.01 37.725 61.7063 38.0737C61.1893 38.6691 60.4978 39.0864 59.73 39.2662C59.28 39.375 58.7813 39.375 57.78 39.375C56.6663 39.375 56.1075 39.375 55.6125 39.2438C54.7768 39.0195 54.0417 38.5185 53.5275 37.8225C53.2275 37.4175 53.0325 36.9038 52.6388 35.8763L52.1813 34.6875C51.345 32.505 50.9288 31.4138 50.0475 30.7613L49.785 30.5775C48.8438 30 47.6625 30 45.285 30H44.7075C42.3338 30 41.145 30 40.215 30.5775L39.9488 30.7613C39.0675 31.4138 38.6513 32.505 37.8113 34.6875L37.3613 35.8763C36.9638 36.9038 36.7688 37.4137 36.4688 37.8262C35.9539 38.5208 35.219 39.0205 34.3838 39.2438C33.8888 39.375 33.3338 39.375 32.2163 39.375C31.215 39.375 30.7163 39.375 30.2663 39.2625C29.499 39.0837 28.8075 38.6678 28.29 38.0737C27.99 37.725 27.7688 37.2863 27.315 36.4125Z" stroke="white" stroke-width="3" stroke-linecap="round" stroke-linejoin="round"/>
<path d="M33.75 82.5L36.03 71.1038C36.5662 68.4113 36.8363 67.0687 37.5563 66.0712C39.3525 63.6 42.2325 63.75 45 63.75C47.7675 63.75 50.6512 63.6 52.4437 66.075C53.1637 67.065 53.4338 68.4113 53.97 71.1038L56.25 82.5M41.25 52.5H48.75" stroke="white" stroke-width="3" stroke-linecap="round" stroke-linejoin="round"/>
</svg>
