<svg width="89" height="89" viewBox="0 0 89 89" fill="none" xmlns="http://www.w3.org/2000/svg">
<path d="M22.25 74.1667C22.25 76.1337 21.4686 78.0201 20.0777 79.411C18.6868 80.8019 16.8004 81.5833 14.8334 81.5833C12.8663 81.5833 10.9799 80.8019 9.58898 79.411C8.19808 78.0201 7.41669 76.1337 7.41669 74.1667C7.41669 72.1996 8.19808 70.3132 9.58898 68.9223C10.9799 67.5314 12.8663 66.75 14.8334 66.75C16.8004 66.75 18.6868 67.5314 20.0777 68.9223C21.4686 70.3132 22.25 72.1996 22.25 74.1667Z" stroke="white" stroke-width="3" stroke-linecap="round" stroke-linejoin="round"/>
<path d="M51.9167 22.25V37.0833M37.0834 44.5H29.6667C22.6728 44.5 19.1795 44.5 17.0065 46.673C14.8334 48.8461 14.8334 52.3394 14.8334 59.3333V66.75M37.0834 44.5C37.0834 38.3627 38.3627 37.0833 44.5 37.0833H59.3334C65.4707 37.0833 66.75 38.3627 66.75 44.5M37.0834 44.5C37.0834 50.6372 38.3627 51.9166 44.5 51.9166H59.3334C65.4707 51.9166 66.75 50.6372 66.75 44.5M22.25 74.1666H37.0834M37.0834 74.1666C37.0834 68.0293 38.3627 66.75 44.5 66.75H59.3334C65.4707 66.75 66.75 68.0293 66.75 74.1666C66.75 80.3039 65.4707 81.5833 59.3334 81.5833H44.5C38.3627 81.5833 37.0834 80.3039 37.0834 74.1666ZM66.75 14.8333C66.75 8.696 65.4707 7.41663 59.3334 7.41663H44.5C38.3627 7.41663 37.0834 8.696 37.0834 14.8333C37.0834 20.9706 38.3627 22.25 44.5 22.25H59.3334C65.4707 22.25 66.75 20.9706 66.75 14.8333ZM66.75 14.8333C73.744 14.8333 77.2372 14.8333 79.4103 17.0064C81.5834 19.1795 81.5834 22.6727 81.5834 29.6666C81.5834 36.6605 81.5834 40.1538 79.4103 42.3269C77.2372 44.5 73.744 44.5 66.75 44.5" stroke="white" stroke-width="3" stroke-linecap="round" stroke-linejoin="round"/>
</svg>
