<svg width="42" height="49" viewBox="0 0 42 49" fill="none" xmlns="http://www.w3.org/2000/svg">
<g clip-path="url(#clip0_1_205)">
<path d="M26.5508 34.0156V39.7852C26.5508 41.0065 26.1953 41.6172 25.4844 41.6172C25.0651 41.6172 24.6549 41.4167 24.2539 41.0156V32.7852C24.6549 32.3841 25.0651 32.1836 25.4844 32.1836C26.1953 32.1836 26.5508 32.7943 26.5508 34.0156ZM35.793 34.043V35.3008H33.332V34.043C33.332 32.8034 33.7422 32.1836 34.5625 32.1836C35.3828 32.1836 35.793 32.8034 35.793 34.043ZM9.37891 28.082H12.3047V25.5117H3.77344V28.082H6.64453V43.6406H9.37891V28.082ZM17.2539 43.6406H19.6875V30.1328H17.2539V40.4688C16.707 41.2344 16.1875 41.6172 15.6953 41.6172C15.3672 41.6172 15.1758 41.4258 15.1211 41.043C15.1029 40.9883 15.0938 40.6693 15.0938 40.0859V30.1328H12.6602V40.8242C12.6602 41.7174 12.7331 42.3828 12.8789 42.8203C13.0977 43.4948 13.6263 43.832 14.4648 43.832C15.3398 43.832 16.2695 43.276 17.2539 42.1641V43.6406ZM28.9844 39.5938V34.207C28.9844 32.8763 28.9023 31.974 28.7383 31.5C28.4284 30.4792 27.7812 29.9688 26.7969 29.9688C25.8854 29.9688 25.0378 30.4609 24.2539 31.4453V25.5117H21.8203V43.6406H24.2539V42.3281C25.0742 43.3307 25.9219 43.832 26.7969 43.832C27.7812 43.832 28.4284 43.3307 28.7383 42.3281C28.9023 41.8359 28.9844 40.9245 28.9844 39.5938ZM38.2266 39.3203V38.9648H35.7383C35.7383 39.8945 35.7201 40.4505 35.6836 40.6328C35.556 41.2891 35.1914 41.6172 34.5898 41.6172C33.7513 41.6172 33.332 40.9883 33.332 39.7305V37.3516H38.2266V34.5352C38.2266 33.0951 37.9805 32.0378 37.4883 31.3633C36.7773 30.4336 35.8112 29.9688 34.5898 29.9688C33.3503 29.9688 32.375 30.4336 31.6641 31.3633C31.1536 32.0378 30.8984 33.0951 30.8984 34.5352V39.2656C30.8984 40.7057 31.1628 41.763 31.6914 42.4375C32.4023 43.3672 33.3867 43.832 34.6445 43.832C35.957 43.832 36.9414 43.349 37.5977 42.3828C37.9258 41.8906 38.1172 41.3984 38.1719 40.9062C38.2083 40.7422 38.2266 40.2135 38.2266 39.3203ZM21.6016 14.3555V8.61328C21.6016 7.35547 21.2096 6.72656 20.4258 6.72656C19.6419 6.72656 19.25 7.35547 19.25 8.61328V14.3555C19.25 15.6315 19.6419 16.2695 20.4258 16.2695C21.2096 16.2695 21.6016 15.6315 21.6016 14.3555ZM41.2617 34.8906C41.2617 39.1562 41.0247 42.3464 40.5508 44.4609C40.2956 45.5365 39.7669 46.4388 38.9648 47.168C38.1628 47.8971 37.2331 48.3164 36.1758 48.4258C32.8216 48.8086 27.763 49 21 49C14.237 49 9.17839 48.8086 5.82422 48.4258C4.76693 48.3164 3.83268 47.8971 3.02148 47.168C2.21029 46.4388 1.6862 45.5365 1.44922 44.4609C0.97526 42.4193 0.738281 39.2292 0.738281 34.8906C0.738281 30.625 0.97526 27.4349 1.44922 25.3203C1.70443 24.2448 2.23307 23.3424 3.03516 22.6133C3.83724 21.8841 4.77604 21.4557 5.85156 21.3281C9.1875 20.9635 14.237 20.7812 21 20.7812C27.763 20.7812 32.8216 20.9635 36.1758 21.3281C37.2331 21.4557 38.1673 21.8841 38.9785 22.6133C39.7897 23.3424 40.3138 24.2448 40.5508 25.3203C41.0247 27.362 41.2617 30.5521 41.2617 34.8906ZM13.9727 0H16.7617L13.4531 10.9102V18.3203H10.7188V10.9102C10.4635 9.5612 9.90755 7.62891 9.05078 5.11328C8.3763 3.23568 7.78385 1.53125 7.27344 0H10.1719L12.1133 7.19141L13.9727 0ZM24.0898 9.10547V13.8906C24.0898 15.3672 23.8346 16.4427 23.3242 17.1172C22.6315 18.0469 21.6654 18.5117 20.4258 18.5117C19.2044 18.5117 18.2474 18.0469 17.5547 17.1172C17.0443 16.4245 16.7891 15.349 16.7891 13.8906V9.10547C16.7891 7.64714 17.0443 6.58073 17.5547 5.90625C18.2474 4.97656 19.2044 4.51172 20.4258 4.51172C21.6654 4.51172 22.6315 4.97656 23.3242 5.90625C23.8346 6.58073 24.0898 7.64714 24.0898 9.10547ZM33.25 4.67578V18.3203H30.7617V16.8164C29.7956 17.9466 28.8568 18.5117 27.9453 18.5117C27.1068 18.5117 26.569 18.1745 26.332 17.5C26.1862 17.0625 26.1133 16.3789 26.1133 15.4492V4.67578H28.6016V14.7109C28.6016 15.3125 28.6107 15.6315 28.6289 15.668C28.6836 16.069 28.875 16.2695 29.2031 16.2695C29.6953 16.2695 30.2148 15.8776 30.7617 15.0938V4.67578H33.25Z" fill="white"/>
</g>
<defs>
<clipPath id="clip0_1_205">
<rect width="42" height="49" fill="white"/>
</clipPath>
</defs>
</svg>
